<?xml version="1.0" encoding="UTF-8"?>
<!-- Uploaded to: SVG Repo, www.svgrepo.com, Generator: SVG Repo Mixer Tools -->
<svg width="800px" height="800px" viewBox="0 -1 22 23" version="1.1" xmlns="http://www.w3.org/2000/svg" xmlns:xlink="http://www.w3.org/1999/xlink">
    <title>multimedia / 14 - multimedia, stop icon, circle, button</title>
    <g id="Free-Icons" stroke="none" stroke-width="1" fill="none" fill-rule="evenodd" stroke-linecap="round" stroke-linejoin="round">
        <g transform="translate(-1117.000000, -378.000000)" id="Group" stroke="#656464" stroke-width="2.6">
            <g transform="translate(1115.000000, 376.000000)" id="Shape">
                <path d="M12,21 C7.02943725,21 3,16.9705627 3,12 C3,7.02943725 7.02943725,3 12,3 C16.9705627,3 21,7.02943725 21,12 C21,16.9705627 16.9705627,21 12,21 Z">

</path>
                <path d="M8,8.54627417 L8,15.4537258 C8,15.5986067 8.05755372,15.7375537 8.16,15.84 C8.26244628,15.9424463 8.40139325,16 8.54627417,16 L15.4537258,16 C15.5986067,16 15.7375537,15.9424463 15.84,15.84 C15.9424463,15.7375537 16,15.5986067 16,15.4537258 L16,8.54627417 C16,8.40139325 15.9424463,8.26244628 15.84,8.16 C15.7375537,8.05755372 15.5986067,8 15.4537258,8 L8.54627417,8 C8.40139325,8 8.26244628,8.05755372 8.16,8.16 C8.05755372,8.26244628 8,8.40139325 8,8.54627417 Z">

</path>
            </g>
        </g>
    </g>
</svg>